<svg width="35" height="35" viewBox="0 0 35 35" fill="none" xmlns="http://www.w3.org/2000/svg">
<path d="M24.4594 13.2399C24.7151 12.91 24.6829 12.4376 24.3841 12.147C24.0852 11.8563 23.6175 11.8422 23.3019 12.114L8.83425 24.5676L1.19433 21.5782C0.748736 21.4054 0.385823 21.0665 0.180902 20.6306C-0.0244272 20.1951 -0.0562541 19.6959 0.0920162 19.2372C0.240289 18.7785 0.557405 18.3952 0.977383 18.1663L32.6949 0.189056C33.0287 0.00722309 33.4168 -0.0457906 33.7863 0.0402097C34.1562 0.125824 34.4822 0.344961 34.7043 0.656006C34.9263 0.967443 35.0287 1.34956 34.993 1.73166L32.2108 31.0757C32.1541 31.686 31.8164 32.2335 31.2994 32.5528C30.782 32.872 30.1466 32.9258 29.5842 32.6973L20.2862 29.0548L14.4488 34.5891C14.16 34.862 13.7769 35.0097 13.3818 34.9995C12.9863 34.9897 12.611 34.8228 12.3362 34.5357C12.061 34.2482 11.9089 33.8629 11.9116 33.4631V29.1169L24.4594 13.2399Z" fill="white"/>
</svg>
