<?xml version="1.0" encoding="utf-8"?>
<!-- Generator: Adobe Illustrator 26.0.2, SVG Export Plug-In . SVG Version: 6.00 Build 0)  -->
<svg version="1.1" id="Warstwa_1" xmlns="http://www.w3.org/2000/svg" xmlns:xlink="http://www.w3.org/1999/xlink" x="0px" y="0px"
	 viewBox="0 0 430 430" style="enable-background:new 0 0 430 430;" xml:space="preserve">
<style type="text/css">
	.st0{fill:url(#SVGID_1_);}
	.st1{fill:url(#SVGID_00000072990888411130327090000009910739162234400420_);}
	.st2{fill:url(#SVGID_00000152942638541838450550000017761368518233409434_);}
	.st3{fill:url(#SVGID_00000022532634639508026220000007639393882142005657_);}
	.st4{fill:url(#SVGID_00000034085748156604608590000012146163614160913084_);}
	.st5{fill:url(#SVGID_00000047748222973894641760000016141495050891734677_);}
	.st6{fill:url(#SVGID_00000167385067477586921110000006835751195350911897_);}
	.st7{fill:url(#SVGID_00000109733439126393139630000004422409694388482490_);}
	.st8{fill:url(#SVGID_00000007411785222715883120000006735210820287936439_);}
	.st9{fill:url(#SVGID_00000052825733500493018580000018274623718053074818_);}
	.st10{fill:url(#SVGID_00000091721425641754462710000015159887482059070127_);}
	.st11{fill:url(#SVGID_00000013897240345058121350000007919636617395707575_);}
	.st12{fill:url(#SVGID_00000128478688051224674840000001984819711803102350_);}
	.st13{fill:url(#SVGID_00000081642582489529131600000008424469358227093674_);}
	.st14{fill:url(#SVGID_00000074436216369491152680000011324765792919070899_);}
	.st15{fill:url(#SVGID_00000152259733159095087970000016432134734362654865_);}
	.st16{fill:url(#SVGID_00000060013779010756811490000012816849526341756849_);}
	.st17{fill:url(#SVGID_00000165913485787424658370000004828928460518696630_);}
	.st18{fill:url(#SVGID_00000170274483366314974590000012952480856701168828_);}
	.st19{fill:url(#SVGID_00000178907041467619359770000016521416913476781972_);}
	.st20{fill:url(#SVGID_00000183218646979617514760000006857456147771257478_);}
	.st21{fill:url(#SVGID_00000082366867127308710860000004138024677542250407_);}
	.st22{fill:url(#SVGID_00000038405334339044878460000016350895770384116133_);}
	.st23{fill:url(#SVGID_00000113327095064377939150000000457993879237523892_);}
	.st24{fill:url(#SVGID_00000155831394222526445600000010583422993959595908_);}
	.st25{fill:url(#SVGID_00000026163531605375152360000001003977943657584806_);}
	.st26{fill:url(#SVGID_00000153679661228166145450000009117341812682455968_);}
	.st27{fill:url(#SVGID_00000168102477225883548420000017165248317984355473_);}
	.st28{fill:url(#SVGID_00000103252546187221022590000007360922070134348167_);}
	.st29{fill:url(#SVGID_00000115475411567066172590000000554943151136961698_);}
	.st30{fill:url(#SVGID_00000056393562302141329740000016905376556795993772_);}
	.st31{fill:url(#SVGID_00000000912929364661122860000008333024655259265193_);}
	.st32{fill:url(#SVGID_00000137840042952106100980000002173925351652107396_);}
	.st33{fill:url(#SVGID_00000125572581779121196460000005398939939020920216_);}
	.st34{fill:url(#SVGID_00000060022300665639462780000016017349764298686119_);}
	.st35{fill:url(#SVGID_00000155831198339335776790000002643299102011533218_);}
	.st36{fill:url(#SVGID_00000021835983981244141620000002152621441430280091_);}
	.st37{fill:url(#SVGID_00000088105192867187975250000012478486862050458770_);}
	.st38{fill:url(#SVGID_00000103948733046139289270000017111799941763451302_);}
	.st39{fill:url(#SVGID_00000182518884877830158470000008875361225322208130_);}
	.st40{fill:url(#SVGID_00000033343316988646491890000017698805750491879053_);}
	.st41{fill:url(#SVGID_00000038409050571389977980000007834366860537361807_);}
	.st42{fill:url(#SVGID_00000018217706610816996860000011257616540693397647_);}
</style>
<linearGradient id="SVGID_1_" gradientUnits="userSpaceOnUse" x1="70.6149" y1="74.2365" x2="351.6042" y2="355.2258">
	<stop  offset="0" style="stop-color:#cb5eee"/>
	<stop  offset="1" style="stop-color:#4be1ec"/>
</linearGradient>
<path class="st0" d="M399.44,125.19l-252.65-0.02h0c-1.64,0-3.2,0.65-4.36,1.81c-1.16,1.16-1.81,2.73-1.81,4.36v167.33
	c0,3.41,2.76,6.17,6.17,6.17h252.65c3.41,0,6.17-2.76,6.17-6.17V131.35C405.61,127.95,402.85,125.19,399.44,125.19z M393.28,268.48
	l-56.04-48.79c-3.04-2.65-6.31-5.11-9.74-7.36l65.79-65.9V268.48z M152.96,146.62l65.78,65.91c-3.27,2.16-6.39,4.51-9.3,7.04
	l-56.48,48.97V146.62z M161.28,137.5l223.46,0.02l-71.54,71.67c-0.01,0.01-0.02,0.02-0.03,0.03l-23.78,23.82
	c-4.37,4.38-10.19,6.79-16.38,6.79c-6.19,0-12.01-2.41-16.38-6.79L161.28,137.5z M152.96,292.5v-8.8c1.06-0.19,2.09-0.66,2.97-1.41
	l61.59-53.4c3.13-2.72,6.53-5.2,10.14-7.42l20.25,20.28c6.7,6.72,15.62,10.41,25.11,10.41c0,0,0,0,0,0c9.49,0,18.41-3.7,25.11-10.41
	l20.44-20.48c3.78,2.3,7.32,4.88,10.57,7.71l62.43,54.35c0.52,0.45,1.1,0.79,1.71,1.04v8.12H152.96z M16.11,173.18
	c0-3.58,2.9-6.48,6.48-6.48h80.84c3.58,0,6.48,2.9,6.48,6.48s-2.9,6.48-6.48,6.48H22.58C19.01,179.65,16.11,176.75,16.11,173.18z
	 M16.11,131.43c0-3.58,2.9-6.48,6.48-6.48h80.84c3.58,0,6.48,2.9,6.48,6.48c0,3.58-2.9,6.48-6.48,6.48H22.58
	C19.01,137.9,16.11,135,16.11,131.43z M110.05,256.18c0,3.58-2.9,6.48-6.48,6.48H22.73c-3.58,0-6.48-2.9-6.48-6.48
	c0-3.58,2.9-6.48,6.48-6.48h80.84C107.16,249.7,110.05,252.6,110.05,256.18z M109.85,297.43c0,3.58-2.9,6.48-6.48,6.48H22.53
	c-3.58,0-6.48-2.9-6.48-6.48s2.9-6.48,6.48-6.48h80.84C106.95,290.95,109.85,293.85,109.85,297.43z M110.05,214.42
	c0,3.58-2.9,6.48-6.48,6.48H22.73c-3.58,0-6.48-2.9-6.48-6.48s2.9-6.48,6.48-6.48h80.84C107.16,207.95,110.05,210.85,110.05,214.42z
	"/>
</svg>
