<svg width="15" height="15" viewBox="0 0 15 15" fill="none" xmlns="http://www.w3.org/2000/svg">
<path d="M10.7962 4.35047L14.038 4.83775C14.9573 4.9759 15.3256 6.15375 14.6614 6.83068L12.3186 9.21823C12.0548 9.48706 11.9348 9.87406 11.9975 10.2531L12.5551 13.6196C12.7131 14.5742 11.7532 15.3036 10.9305 14.8538L8.02968 13.2679C7.70297 13.0893 7.3129 13.0896 6.98676 13.2691L4.08954 14.8625C3.26804 15.3143 2.30633 14.5873 2.46218 13.6323L3.01194 10.2643C3.07376 9.88502 2.95295 9.49826 2.68839 9.23003L0.340609 6.84848C-0.325291 6.17312 0.0403328 4.99444 0.959485 4.85394L4.20008 4.35869C4.565 4.30304 4.88018 4.0635 5.04298 3.71829L6.48899 0.652815C6.89903 -0.216458 8.08672 -0.217933 8.49866 0.650364L9.95162 3.71214C10.1153 4.05672 10.431 4.29554 10.7961 4.35034L10.7962 4.35047Z" fill="white"/>
</svg>
